<svg xmlns="http://www.w3.org/2000/svg" 
    xmlns:xlink="http://www.w3.org/1999/xlink" 
    version="1.1" 
    x="0px" 
    y="0px" 
    viewBox="0 0 90 112.5" 
    enable-background="new 0 0 90 90" 
    xml:space="preserve"
    style="transform: translateY(10px);"
    >
    <g>
        <path fill="#03A9F4" d="M83.4,30.4c0-9.9-6.7-18-15.1-18c-1,0-2,0.1-2.9,0.3c-0.3-2.4-1-4.5-2.5-6.4C59.1,1.2,55.4,0,47.8,0   C35.9,0.6,25.1,15.8,14.2,2.5c0,3.6,1.2,7.3,3.2,10.7c-6.3,2.1-11,9.1-11,17.3c0,6.2,2.7,11.7,6.7,14.9c0,0,0,0,0,0   c-0.1,0.3-0.2,0.6-0.2,0.9c0,1.2,0.9,2.1,2.1,2.1h2c0,0.2,0,0.4,0,0.6l0.4,7.9c0.2,4.4,3.6,7.9,7.5,7.9h9.2c1.2,0,2.3-0.3,3.4-0.9   L37,71.1c-0.4,4.7,3.2,8.6,7.9,8.6c4.7,0,8.3-3.9,7.9-8.6l-0.6-7.3c1,0.6,2.2,0.9,3.4,0.9h9.2c3.9,0,7.3-3.5,7.5-7.9l0.4-7.9   c0-0.2,0-0.4,0-0.6h2c1.2,0,2.1-0.9,2.1-2.1c0-0.3-0.1-0.6-0.2-0.9c0,0,0,0,0,0C80.7,42.1,83.4,36.6,83.4,30.4z M34.3,60.5h-9.4   c-1.9,0-3.5-1.7-3.6-3.7L21,48.9c-0.1-2.1,1.5-3.7,3.5-3.7h10c2,0,3.6,1.7,3.5,3.7l-0.3,7.9C37.7,58.9,36.1,60.5,34.3,60.5z    M68.5,56.8c-0.1,2.1-1.7,3.7-3.6,3.7h-9.4c-1.9,0-3.5-1.7-3.6-3.7l-0.3-7.9c-0.1-2.1,1.5-3.7,3.5-3.7h10c2,0,3.6,1.7,3.5,3.7   L68.5,56.8z M74,44.1h-2.6c-1.3-1.9-3.5-3.1-6.1-3.1H55.1c-3,0-5.5,1.7-6.7,4.2c-1-0.5-2.2-0.9-3.5-0.9c-1.3,0-2.4,0.3-3.5,0.9   c-1.2-2.5-3.7-4.2-6.7-4.2H24.5c-2.6,0-4.8,1.2-6.1,3.1h-2.6c0-0.4,0-0.8,0-1.2c0-9.1,2.2-17.6,6-24.2c9.7,9.8,26.9,14.6,39.8,3.2   c2.1-1.8,3.9-4.6,3.9-6.9c5.3,7.1,8.5,17,8.5,28C74,43.4,74,43.7,74,44.1z"/>
    </g>
    <!--
    <text x="0" y="105" fill="#000000" font-size="5px" font-weight="bold" font-family="'Helvetica Neue', Helvetica, Arial-Unicode, Arial, Sans-serif">Created by Vincent Montagnana</text>
    <text x="0" y="110" fill="#000000" font-size="5px" font-weight="bold" font-family="'Helvetica Neue', Helvetica, Arial-Unicode, Arial, Sans-serif">from the Noun Project</text>
    -->
</svg>