<svg xmlns="http://www.w3.org/2000/svg" xmlns:xlink="http://www.w3.org/1999/xlink" version="1.1" x="0px" y="0px" viewBox="0 0 100 100" style="enable-background:new 0 0 100 100;" xml:space="preserve">
    <path stroke-width="2" stroke="#03A9F4" fill="#ff0000" d="M10.69,53.63c4.47,0.21,11,1.3,11.52,3.05c1.2,4.08-8.1,11.21-11.78,13.62c-0.31,0.2-0.42,0.6-0.25,0.93  c0.13,0.25,0.38,0.4,0.65,0.4c0.08,0,0.16-0.01,0.24-0.04c2.62-0.94,5.23-2.22,7.74-3.47c5.68-2.81,11.05-5.47,14.74-3  c1.6,1.07,1.15,7.86,0.33,12.33c-0.06,0.35,0.13,0.69,0.46,0.81c0.08,0.03,0.17,0.04,0.25,0.04c0.25,0,0.5-0.13,0.63-0.37  c2.93-5.1,8.64-13.09,11.53-12.71c1.94,0.24,4.58,6.63,5.83,11.09c0.09,0.31,0.37,0.53,0.7,0.53c0,0,0,0,0,0  c0.33,0,0.61-0.22,0.7-0.54c1.2-4.47,3.85-11.08,5.73-11.08c1.9,0,4.5,6.48,5.73,11.08c0.09,0.32,0.38,0.54,0.7,0.54  c0.03,0,0.05,0,0.08,0c0.36-0.04,0.63-0.33,0.65-0.69c0.21-4.47,1.3-11,3.06-11.52c0,0,0.01,0,0.01-0.01c1.72-0.5,5.02,1.68,9.04,6  c0.04,0.04,0.09,0.07,0.14,0.1c0.03,0.02,0.05,0.05,0.09,0.06c0.1,0.04,0.2,0.07,0.3,0.07c0,0,0,0,0,0c0,0,0,0,0,0c0,0,0,0,0,0  c0.13,0,0.26-0.05,0.38-0.12c0.01-0.01,0.03,0,0.05-0.01c0.01-0.01,0.02-0.02,0.03-0.03c0.01-0.01,0.03-0.01,0.04-0.02  c0.02-0.02,0.04-0.05,0.06-0.08c0.03-0.04,0.06-0.08,0.08-0.12c0.02-0.04,0.03-0.09,0.05-0.13c0.01-0.04,0.03-0.09,0.03-0.13  c0-0.05,0-0.09,0-0.14c0-0.05-0.01-0.09-0.02-0.13c-0.01-0.05-0.04-0.09-0.06-0.13c-0.02-0.03-0.02-0.06-0.04-0.09  c-4.59-6.35-4.46-8.75-3.96-9.62c0-0.01,0.01-0.01,0.02-0.02c0.92-1.53,7.64-0.48,11.88,0.7c0.07,0.02,0.13,0.03,0.2,0.03  c0.31,0,0.59-0.2,0.69-0.5c0.12-0.37-0.07-0.77-0.44-0.91c-4.16-1.55-10.22-4.66-10-6.42c0.18-1.46,3.37-2.01,6.17-2.51  c1.63-0.29,3.33-0.58,4.64-1.07c0.28-0.1,0.47-0.36,0.47-0.66c0.01-0.3-0.16-0.57-0.43-0.69c-1.37-0.6-3.12-1.04-4.8-1.46  c-3.09-0.77-6.29-1.57-6.63-3.23c-0.81-3.97,8.2-10.16,11.73-12.21c0.32-0.18,0.45-0.58,0.3-0.92c-0.15-0.34-0.52-0.52-0.87-0.41  c-2.5,0.75-4.99,1.78-7.4,2.76c-5.82,2.39-11.32,4.64-15.13,2.26c-1.77-1.11-2.01-8.2-1.75-12.41c0.02-0.35-0.2-0.66-0.54-0.75  c-0.33-0.09-0.69,0.07-0.84,0.38c-2.42,4.95-7.22,12.67-9.95,12.67c-0.04,0-0.09,0-0.13-0.01c-1.93-0.18-4.56-6.59-5.81-11.09  c-0.09-0.31-0.37-0.53-0.7-0.53c0,0,0,0,0,0c-0.33,0-0.61,0.22-0.7,0.54c-1.23,4.6-3.83,11.08-5.73,11.08  c-1.9,0-4.5-6.48-5.73-11.08c-0.09-0.35-0.42-0.57-0.78-0.53c-0.36,0.04-0.63,0.33-0.65,0.69c-0.21,4.47-1.3,11-3.05,11.52  c0,0,0,0,0,0c0,0,0,0,0,0c-1.65,0.49-4.56-1.22-8.2-4.83c-0.02-0.02-0.05-0.03-0.07-0.04c-0.04-0.03-0.08-0.06-0.12-0.08  c-0.04-0.02-0.08-0.04-0.13-0.05c-0.05-0.01-0.09-0.02-0.14-0.03c-0.05,0-0.09,0-0.14,0c-0.05,0-0.09,0.01-0.13,0.03  c-0.05,0.01-0.09,0.03-0.13,0.06c-0.02,0.01-0.05,0.02-0.07,0.03c-0.02,0.01-0.03,0.03-0.04,0.05c-0.02,0.01-0.04,0.02-0.06,0.04  c-0.02,0.02-0.03,0.05-0.04,0.07c-0.03,0.04-0.06,0.08-0.08,0.12c-0.02,0.04-0.04,0.08-0.05,0.13c-0.01,0.05-0.02,0.09-0.03,0.14  c0,0.05,0,0.09,0,0.13c0,0.05,0.01,0.09,0.03,0.14c0.01,0.05,0.03,0.09,0.06,0.13c0.01,0.02,0.02,0.05,0.03,0.07  c2.81,4.04,3.91,7.05,3.08,8.46c0,0,0,0,0,0c-0.9,1.54-7.62,0.48-11.87-0.71c-0.38-0.1-0.77,0.1-0.89,0.47  c-0.12,0.37,0.07,0.77,0.43,0.91c4.11,1.54,10.13,4.66,10,6.46c-0.11,1.66-3.46,2.64-6.41,3.51c-1.7,0.5-3.45,1.02-4.8,1.69  c-0.29,0.15-0.45,0.48-0.39,0.8C10.08,53.37,10.36,53.61,10.69,53.63z M15.61,51.95c3.57-1.05,7.27-2.14,7.45-4.8  c0.13-1.84-2.35-3.73-5.02-5.21c3.05,0.39,6.19,0.33,7.14-1.27c0,0,0.01-0.01,0.01-0.01c0.81-1.38,0.56-3.38-0.73-6.02  c2,1.5,3.69,2.25,5.1,2.25c0.29,0,0.56-0.05,0.82-0.12c0,0,0,0,0,0c0.05,0,0.1-0.01,0.15-0.02c0.02,0,0.03,0,0.05-0.01c0,0,0,0,0,0  c0,0,0,0,0,0c2.3-0.68,3.32-5.49,3.77-9.11c1.27,3.67,3.46,8.57,6.03,8.57c2.87,0,5.27-6.14,6.44-9.81  c1.18,3.59,3.56,9.55,6.36,9.81c0.08,0.01,0.15,0.01,0.23,0.01c3.39,0,7.59-6.66,9.81-10.66c-0.01,3.71,0.36,9.19,2.53,10.55  c4.44,2.78,10.27,0.39,16.45-2.14c0.53-0.22,1.07-0.44,1.61-0.66c-3.76,2.82-8.05,6.88-7.34,10.37c0.52,2.56,4.17,3.47,7.7,4.35  c0.81,0.2,1.63,0.4,2.4,0.63c-0.71,0.15-1.45,0.28-2.18,0.41c-3.47,0.61-7.05,1.24-7.36,3.76c0,0,0,0,0,0c0,0,0,0,0,0  c-0.23,1.86,2.26,3.76,4.96,5.25c-2.89-0.36-5.84-0.3-6.93,1.09c-0.06,0.05-0.12,0.11-0.17,0.18c-0.84,1.39-0.51,3.52,0.97,6.39  c-2.62-2.1-4.76-2.95-6.36-2.48c-0.02,0-0.03,0.02-0.04,0.02c-2.27,0.73-3.28,5.5-3.73,9.09c-1.27-3.67-3.46-8.58-6.03-8.58  c-2.88,0-5.27,6.15-6.45,9.83c-1.18-3.56-3.55-9.47-6.33-9.82c-3.5-0.45-8.42,6.24-11.1,10.38c0.42-3.69,0.59-8.88-1.47-10.26  c-4.39-2.93-10.12-0.1-16.19,2.91c-0.6,0.3-1.2,0.59-1.81,0.89c3.88-3.22,8.3-7.83,7.24-11.44c-0.71-2.41-5.95-3.42-9.61-3.83  C14.53,52.27,15.07,52.11,15.61,51.95z"/>
    <!--
    <text x="0" y="115" fill="#000000" font-size="5px" font-weight="bold" font-family="'Helvetica Neue', Helvetica, Arial-Unicode, Arial, Sans-serif">Created by ainul muttaqin</text>
    <text x="0" y="120" fill="#000000" font-size="5px" font-weight="bold" font-family="'Helvetica Neue', Helvetica, Arial-Unicode, Arial, Sans-serif">from the Noun Project</text>
    -->
</svg>