<svg xmlns="http://www.w3.org/2000/svg" xmlns:xlink="http://www.w3.org/1999/xlink" version="1.1" x="0px" y="0px" viewBox="0 0 64 80" style="enable-background:new 0 0 64 64;" xml:space="preserve">
    <g>
        <path d="M34.0499878,4l3.6699829,11H40c0.5499878,0,1,0.4500122,1,1v10h14V4H34.0499878z M52,13h-6   c-0.3099976,0-0.6099854,0.1499634-0.7999878,0.3999634L44,15V9h8V13z M41,28v8h14v-8H41z M52,33h-8c-0.5499878,0-1-0.4500122-1-1   s0.4500122-1,1-1h8c0.5499878,0,1,0.4500122,1,1S52.5499878,33,52,33z M32.0499878,4.3200073   C32.0200195,4.2099609,32.0100098,4.1099854,32.0100098,4h-1.960022l3.6699829,11h1.8900146L32.0499878,4.3200073z    M28.0499878,4.3200073C28.0200195,4.2099609,28.0100098,4.1099854,28.0100098,4H15v11h16.6099854L28.0499878,4.3200073z M9,17v24   h12c0.2399902,0,0.4699707,0.0799561,0.6500244,0.2399902L27,45.8299561V42c0-0.5499878,0.4500122-1,1-1h11V17H9z M30,36H16   c-0.5499878,0-1-0.4500122-1-1s0.4500122-1,1-1h14c0.5499878,0,1,0.4500122,1,1S30.5499878,36,30,36z M36,27h-5   c-0.3300171,0-0.6500244-0.1700439-0.8300171-0.4500122l-1.2000122-1.789978l-4.1599731,5.8199463   C24.6199951,30.8499756,24.3200073,31,24,31c-0.039978,0-0.0900269,0-0.1300049-0.0100098   c-0.3699951-0.0499878-0.6799927-0.289978-0.8099976-0.6400146L20.8699951,24.5l-0.9799805,1.9500122   C19.7299805,26.789978,19.3800049,27,19,27h-7c-0.5499878,0-1-0.4500122-1-1s0.4500122-1,1-1h6.3800049l1.7299805-3.4500122   C20.2800293,21.2000122,20.6400146,20.9799805,21.0499878,21c0.4000244,0.0199585,0.75,0.2799683,0.8900146,0.6499634   l2.3400269,6.2400513l3.9099731-5.4700317C28.3800049,22.1499634,28.6699829,21.9899902,29.0200195,22   c0.3200073,0.0100098,0.6300049,0.1699829,0.8099976,0.4500122L31.539978,25H36c0.5499878,0,1,0.4500122,1,1S36.5499878,27,36,27z    M34,43v17h2V43H34z M29,43v5c0,0.3900146-0.2299805,0.75-0.5800171,0.9099731   c-0.1199951,0.0499878-0.25,0.0700073-0.3699951,0.0800171C28.0300293,48.9899902,28.0200195,49,28,49   s-0.039978-0.0100098-0.0499878-0.0100098c-0.0800171,0-0.1500244-0.0200195-0.2200317-0.039978   c-0.039978-0.0100098-0.0700073-0.0100098-0.0999756-0.0300293c-0.0999756-0.039978-0.2000122-0.0900269-0.2800293-0.1599731   L20.6300049,43H15v17h17V43H29z M25,58h-6c-0.5499878,0-1-0.4500122-1-1s0.4500122-1,1-1h6c0.5499878,0,1,0.4500122,1,1   S25.5499878,58,25,58z M41,38v4c0,0.5499878-0.4500122,1-1,1h-2v17h17V38H41z M49.4099731,50.9199829   C49.1500244,51.0999756,49,51.3999634,49,51.7199707v1.6600342l-2.5499878-1.2700195C46.3099976,52.039978,46.1599731,52,46,52   c-2.7600098,0-5-1.7900391-5-4c0-2.210022,2.2399902-4,5-4s5,1.789978,5,4   C51,49.0999756,50.4199829,50.1699829,49.4099731,50.9199829z"/>
    </g>
    <!--
    <text x="0" y="79" fill="#000000" font-size="5px" font-weight="bold" font-family="'Helvetica Neue', Helvetica, Arial-Unicode, Arial, Sans-serif">Created by Asheeqa</text>
    <text x="0" y="84" fill="#000000" font-size="5px" font-weight="bold" font-family="'Helvetica Neue', Helvetica, Arial-Unicode, Arial, Sans-serif">from the Noun Project</text>
    -->
</svg>