<svg xmlns="http://www.w3.org/2000/svg" viewBox="0 0 64 80" x="0px" y="0px">
    <title>Comic icon</title>
    <desc>Comic icon for website, application, printing, document, poster design, etc.</desc>
    <metadata>
        <?xpacket begin="&#65279;" id="W5M0MpCehiHzreSzNTczkc9d"?>
        <x:xmpmeta xmlns:x="adobe:ns:meta/" x:xmptk="Adobe XMP Core 6.0-c002 79.164488, 2020/07/10-22:06:53        "/>
        <?xpacket end="w"?>
    </metadata>
    <g>
        <path d="M3,23a1,1,0,0,0-1,1V61a1,1,0,0,0,1,1H47a1,1,0,0,0,1-1V41.439a1,1,0,1,0-2,0V60H4V24A1,1,0,0,0,3,23Z"/>
        <path d="M43,12a1,1,0,0,0,1-1V7a1,1,0,0,0-1-1H23.609a1,1,0,0,0-.957,1.291l5.614,18.444a1,1,0,0,0,.956.709.974.974,0,0,0,.243-.03L43.243,22.97A1,1,0,0,0,44,22V15a1,1,0,0,0-2,0v6.219l-2.265.566A2.868,2.868,0,0,1,39.2,20.12a2.827,2.827,0,0,1,1.033-2.194,1,1,0,0,0-.8-1.752A2.846,2.846,0,0,1,36.11,13.38a3.009,3.009,0,0,1,.136-.875,1,1,0,0,0-1.625-1.038A2.848,2.848,0,0,1,29.965,10.1,1,1,0,0,0,29,9.36h0a1,1,0,0,0-.965.741,2.791,2.791,0,0,1-1.844,1.945L24.958,8H42v3A1,1,0,0,0,43,12ZM33.943,23.229,29.9,24.239l-1.479-4.86a3.525,3.525,0,0,0,.394-.325,3.581,3.581,0,0,0,1.46.842,3.545,3.545,0,0,0,1.69.081,3.55,3.55,0,0,0,1.164,1.884,3.5,3.5,0,0,0,.992.592A3.5,3.5,0,0,0,33.943,23.229ZM29,12.476a4.878,4.878,0,0,0,5.149,1.511,4.854,4.854,0,0,0,3.523,4.053,4.827,4.827,0,0,0-.471,2.08,4.9,4.9,0,0,0,.507,2.168l-1.433.358a1.7,1.7,0,0,1,.216-.226,1,1,0,0,0-.815-1.746,1.51,1.51,0,0,1-1.253-.339,1.539,1.539,0,0,1-.552-1.175,1.689,1.689,0,0,1,.076-.485,1,1,0,0,0-1.628-1.035,1.548,1.548,0,0,1-2.532-.739,1,1,0,0,0-.961-.741h0a1,1,0,0,0-.964.732,1.582,1.582,0,0,1-.11.269l-.972-3.2A4.827,4.827,0,0,0,29,12.476Z"/>
        <path d="M11,8a1,1,0,0,0,0-2H7A1,1,0,0,0,6,7V31a1,1,0,0,0,1.243.97l18.505-4.626a1,1,0,0,0,.713-1.261l-5.9-19.374A1,1,0,0,0,19.609,6H15a1,1,0,0,0,0,2h3.868l1.124,3.694A2.861,2.861,0,0,1,17.8,12.73,2.769,2.769,0,0,1,15.912,12a1,1,0,0,0-1.626,1.04,2.853,2.853,0,0,1-3.167,3.668A1,1,0,0,0,10.3,18.46a2.846,2.846,0,0,1-.687,4.8,1,1,0,0,0,.273,1.911,2.862,2.862,0,0,1,2.5,2.838,2.734,2.734,0,0,1-.083.632L8,29.719V8Zm8.8,18.77a3.641,3.641,0,0,0-.983-1.178,3.657,3.657,0,0,0,.485-3.366,3.661,3.661,0,0,0,2.23-2.566,3.637,3.637,0,0,0,.9.062l1.807,5.937Zm-7.7-2.889a4.86,4.86,0,0,0,.765-5.316,4.876,4.876,0,0,0,2.616-1.809,4.82,4.82,0,0,0,.9-2.239,4.818,4.818,0,0,0,1.418.213,4.92,4.92,0,0,0,2.84-.909l1.17,3.845a1.523,1.523,0,0,1-.632-.352,1,1,0,0,0-1.632,1.036,1.614,1.614,0,0,1-.241,1.452,1.543,1.543,0,0,1-1.547.647,1,1,0,0,0-.83,1.755,1.626,1.626,0,0,1-.391,2.736,1,1,0,0,0,.269,1.913,1.633,1.633,0,0,1,.923.434l-3.35.838c0-.039.011-.077.011-.115A4.866,4.866,0,0,0,12.1,23.881Z"/>
        <circle cx="10" cy="44" r="1"/>
        <path d="M61.7,5.291a5,5,0,0,0-9.229-.4L48,14.469V3a1,1,0,0,0-1-1H3A1,1,0,0,0,2,3V20a1,1,0,0,0,2,0V4H46V18.758l-3.411,7.314L6.757,35.03A1,1,0,0,0,6,36v5.008c-.041.031-.085.057-.126.09A4.978,4.978,0,0,0,6,48.979V57a1,1,0,0,0,1,1H43a1,1,0,0,0,1-1V40.641l4.6-4.006a1,1,0,0,0,.249-.331L53.8,25.692a1,1,0,1,0-1.813-.845l-4.525,9.7-1.813-.845L56.638,10.142l1.812.846L53.678,21.222a1,1,0,1,0,1.812.845L61.53,9.114A4.963,4.963,0,0,0,61.7,5.291ZM55.973,4.183a3,3,0,0,1,3.745,4.086l-.423.906L53.858,6.639l.422-.906A2.977,2.977,0,0,1,55.973,4.183ZM41.588,38.433l1.239.578-1.269,1.1Zm.04-2.189.039-2.187L43.9,35.1h0l2.23,1.04-1.65,1.437Zm.4-4.228L53.013,8.452l1.812.845L43.837,32.861ZM8,36.781l33.5-8.376-1.712,3.672a1.012,1.012,0,0,0-.094.4l-.022,1.226-.841-1.262a1,1,0,0,0-1.824.431l-.817,6.531-7.705-4.281a1,1,0,0,0-1.405,1.268L29.2,41.347l-9.888-3.3a1,1,0,0,0-1.056,1.621L23.1,45a1,1,0,1,0,1.479-1.346l-2.269-2.5,8.37,2.789a1,1,0,0,0,1.235-1.342L30.071,38.3l6.443,3.579a1,1,0,0,0,1.478-.75l.667-5.333.951,1.426-.093,5.111a1,1,0,0,0,.275.7.983.983,0,0,0-.264.095A1,1,0,0,0,39,44v2l-2.4-1.8a1,1,0,0,0-1.549,1.116l1.173,3.517-4.728-2.7a1,1,0,0,0-1.328,1.423l3.172,4.758L29.8,53.02a1,1,0,0,0-.4,1.78L31,56H25.435L22.18,52.513l7.033-1.536a1,1,0,0,0,.527-1.65l-2.463-2.709a1,1,0,1,0-1.48,1.346l1.3,1.429-7.059,1.541a1,1,0,0,0-.518,1.659L22.7,56H15V52.233l4.786-5.47a2.568,2.568,0,0,0-3.474-3.746L14,44.754a5.209,5.209,0,0,0-.159-1.039,4.97,4.97,0,0,0-3.7-3.589A5.146,5.146,0,0,0,8,40.108ZM8,56V48.445a1,1,0,0,0-.5-.864,2.994,2.994,0,1,1,4.395-3.37,3,3,0,0,1-.453,2.516A1,1,0,0,0,12.861,48.1l4.651-3.488a.569.569,0,0,1,.769.83L13.248,51.2a1,1,0,0,0-.248.658V56Zm26.333,0-1.944-1.458L35.2,53.98a1,1,0,0,0,.636-1.535l-1.65-2.475,3.322,1.9a1,1,0,0,0,1.445-1.184l-.988-2.963L39.4,48.8A1,1,0,0,0,41,48V45.868l1,.667V56ZM42,44.132,40.758,43.3a1,1,0,0,0,.416-.2L42,42.382Z"/>
    </g>
    <!--
    <text x="0" y="79" fill="#000000" font-size="5px" font-weight="bold" font-family="'Helvetica Neue', Helvetica, Arial-Unicode, Arial, Sans-serif">Created by Tippawan Sookruay</text>
    <text x="0" y="84" fill="#000000" font-size="5px" font-weight="bold" font-family="'Helvetica Neue', Helvetica, Arial-Unicode, Arial, Sans-serif">from the Noun Project</text>
    -->
</svg>